<svg width="321" height="84" viewBox="0 0 321 84" fill="none" xmlns="http://www.w3.org/2000/svg">
<path d="M29.532 53.7715H13.3513L10.2751 63H0.462158L17.135 18.2109H25.6868L42.4519 63H32.6389L29.532 53.7715ZM15.843 46.2964H27.0403L21.4109 29.5312L15.843 46.2964Z" fill="white"/>
<path d="M44.759 46.1118C44.759 41.0054 45.969 36.8936 48.3889 33.7764C50.8293 30.6592 54.1106 29.1006 58.2327 29.1006C61.8831 29.1006 64.7234 30.3516 66.7537 32.8535L67.1228 29.7158H75.1824V61.8926C75.1824 64.8047 74.5159 67.3374 73.1829 69.4907C71.8704 71.644 70.0144 73.2847 67.615 74.4126C65.2156 75.5405 62.406 76.1045 59.1863 76.1045C56.7458 76.1045 54.3669 75.6123 52.0496 74.6279C49.7322 73.6641 47.9788 72.4131 46.7893 70.875L50.7268 65.4609C52.9417 67.9424 55.6282 69.1831 58.7864 69.1831C61.1448 69.1831 62.9802 68.5474 64.2927 67.2759C65.6052 66.0249 66.2615 64.2407 66.2615 61.9233V60.1392C64.2107 62.4565 61.5139 63.6152 58.1711 63.6152C54.1721 63.6152 50.9319 62.0566 48.4504 58.9395C45.9895 55.8018 44.759 51.6489 44.759 46.481V46.1118ZM53.6492 46.7578C53.6492 49.7725 54.2542 52.1411 55.4641 53.8638C56.6741 55.5659 58.3352 56.417 60.4475 56.417C63.1545 56.417 65.0925 55.4019 66.2615 53.3716V39.375C65.072 37.3447 63.1545 36.3296 60.509 36.3296C58.3762 36.3296 56.6946 37.2012 55.4641 38.9443C54.2542 40.6875 53.6492 43.292 53.6492 46.7578Z" fill="white"/>
<path d="M100.745 38.0522C99.5354 37.8882 98.469 37.8062 97.5461 37.8062C94.1829 37.8062 91.9783 38.9443 90.9324 41.2207V63H82.0422V29.7158H90.4402L90.6863 33.6841C92.4705 30.6284 94.9417 29.1006 98.0999 29.1006C99.0842 29.1006 100.007 29.2339 100.868 29.5005L100.745 38.0522Z" fill="white"/>
<path d="M102.56 46.0503C102.56 42.7485 103.196 39.8057 104.468 37.2217C105.739 34.6377 107.564 32.6382 109.943 31.2231C112.343 29.8081 115.121 29.1006 118.28 29.1006C122.771 29.1006 126.431 30.4746 129.261 33.2227C132.112 35.9707 133.701 39.7031 134.03 44.4199L134.091 46.6963C134.091 51.8027 132.666 55.9043 129.815 59.001C126.965 62.0771 123.14 63.6152 118.341 63.6152C113.542 63.6152 109.707 62.0771 106.836 59.001C103.986 55.9248 102.56 51.7412 102.56 46.4502V46.0503ZM111.45 46.6963C111.45 49.8545 112.045 52.2744 113.235 53.9561C114.424 55.6172 116.126 56.4478 118.341 56.4478C120.494 56.4478 122.176 55.6274 123.386 53.9868C124.596 52.3257 125.201 49.6802 125.201 46.0503C125.201 42.9536 124.596 40.5542 123.386 38.8521C122.176 37.1499 120.474 36.2988 118.28 36.2988C116.106 36.2988 114.424 37.1499 113.235 38.8521C112.045 40.5337 111.45 43.1484 111.45 46.6963Z" fill="white"/>
<path d="M141.997 10.5C141.997 4.70101 146.698 0 152.497 0H309.997C315.796 0 320.497 4.70101 320.497 10.5V73.5C320.497 79.299 315.796 84 309.997 84H152.497C146.698 84 141.997 79.299 141.997 73.5V10.5Z" fill="#2DB718"/>
<path d="M192.918 63H183.689L165.724 33.5303V63H156.496V18.2109H165.724L183.72 47.7422V18.2109H192.918V63Z" fill="white"/>
<path d="M215.712 63.6152C210.831 63.6152 206.853 62.1182 203.777 59.124C200.721 56.1299 199.193 52.1411 199.193 47.1577V46.2964C199.193 42.9536 199.839 39.9697 201.131 37.3447C202.423 34.6992 204.248 32.6689 206.607 31.2539C208.986 29.8184 211.693 29.1006 214.728 29.1006C219.281 29.1006 222.859 30.5361 225.464 33.4072C228.089 36.2783 229.401 40.3491 229.401 45.6196V49.2495H208.206C208.493 51.4233 209.355 53.1665 210.79 54.479C212.246 55.7915 214.082 56.4478 216.297 56.4478C219.721 56.4478 222.398 55.207 224.325 52.7256L228.694 57.6167C227.361 59.5034 225.556 60.98 223.28 62.0464C221.003 63.0923 218.481 63.6152 215.712 63.6152ZM214.697 36.2988C212.933 36.2988 211.498 36.8936 210.39 38.083C209.303 39.2725 208.606 40.9746 208.299 43.1895H220.665V42.4819C220.624 40.5132 220.091 38.9956 219.065 37.9292C218.04 36.8423 216.584 36.2988 214.697 36.2988Z" fill="white"/>
<path d="M263.424 50.9106L267.792 29.7158H276.374L267.884 63H260.44L254.134 42.0513L247.827 63H240.414L231.924 29.7158H240.506L244.844 50.8799L250.934 29.7158H257.364L263.424 50.9106Z" fill="white"/>
<path d="M298.83 53.8022C298.83 52.7153 298.287 51.8643 297.2 51.249C296.134 50.6133 294.411 50.0493 292.032 49.5571C284.116 47.896 280.158 44.5327 280.158 39.4673C280.158 36.5142 281.378 34.0532 283.819 32.0845C286.28 30.0952 289.489 29.1006 293.447 29.1006C297.672 29.1006 301.045 30.0952 303.568 32.0845C306.111 34.0737 307.382 36.6577 307.382 39.8364H298.492C298.492 38.5649 298.082 37.519 297.261 36.6987C296.441 35.8579 295.159 35.4375 293.416 35.4375C291.919 35.4375 290.76 35.7759 289.94 36.4526C289.12 37.1294 288.71 37.9907 288.71 39.0366C288.71 40.021 289.171 40.8208 290.094 41.436C291.037 42.0308 292.616 42.5537 294.831 43.0049C297.046 43.4355 298.912 43.9277 300.43 44.4814C305.126 46.2041 307.474 49.188 307.474 53.4331C307.474 56.4683 306.172 58.9292 303.568 60.8159C300.963 62.6821 297.6 63.6152 293.478 63.6152C290.689 63.6152 288.207 63.123 286.033 62.1387C283.88 61.1338 282.188 59.77 280.958 58.0474C279.727 56.3042 279.112 54.4277 279.112 52.418H287.541C287.623 53.9971 288.207 55.207 289.294 56.0479C290.381 56.8887 291.837 57.3091 293.662 57.3091C295.365 57.3091 296.646 56.9912 297.508 56.3555C298.389 55.6992 298.83 54.8481 298.83 53.8022Z" fill="white"/>
</svg>
